<svg xmlns="http://www.w3.org/2000/svg" xmlns:xlink="http://www.w3.org/1999/xlink" width="1091px" height="220px" viewBox="0 0 1090 220"><g id="surface1"><path style=" stroke:none;fill-rule:evenodd;fill:rgb(95.294118%,42.352941%,13.72549%);fill-opacity:1;" d="M 90 125.398438 C 92.300781 120.101562 96.398438 113.5 99.5 108.101562 L 118.300781 74 C 121.210938 68.351562 124.554688 62.933594 128.300781 57.800781 L 128.300781 129.5 L 158.300781 129.5 C 157.601562 112.101562 160 10 157.699219 3.699219 C 153.613281 2.695312 149.375 2.457031 145.199219 3 C 125.199219 3 128.898438 1 124.398438 9.199219 C 117.101562 22.300781 81.898438 86.398438 80 88.5 L 43.101562 21.898438 C 41 18.101562 38.898438 14.5 37.101562 11 L 31.101562 0 C 20.910156 2.078125 10.886719 4.886719 1.101562 8.398438 C 1.101562 46.5 0.300781 92.800781 1.101562 129.398438 L 31.101562 129.398438 L 31.101562 60.800781 C 34.863281 65.957031 38.207031 71.410156 41.101562 77.101562 C 46.5 86 67 122.800781 70 125.5 Z M 90 125.398438 "></path><path style=" stroke:none;fill-rule:evenodd;fill:rgb(95.294118%,42.352941%,13.72549%);fill-opacity:1;" d="M 425.101562 102.5 C 415.101562 102.5 403.699219 102.5 393.300781 102.5 C 382.898438 102.5 373.300781 103.898438 366.101562 98.601562 C 354.601562 90 350 70 354.300781 52.601562 C 360.601562 27.199219 375.601562 30 393.300781 30 C 413.300781 30 435.898438 31.101562 455.398438 30 L 447.300781 3 C 431.800781 2.300781 414.398438 3 398.699219 3 C 383 3 367.101562 1.398438 354.300781 7.199219 C 307.898438 28 310 115.5 360.699219 127.898438 C 376.347656 129.910156 392.152344 130.445312 407.898438 129.5 C 423 129.5 441.199219 130.398438 456 129.5 C 454.5 123.699219 456 76.699219 455.398438 65.601562 C 445.214844 67.570312 435.191406 70.277344 425.398438 73.699219 Z M 425.101562 102.5 "></path><path style=" stroke:none;fill-rule:evenodd;fill:rgb(95.294118%,42.352941%,13.72549%);fill-opacity:1;" d="M 182.699219 30 C 205.898438 30.898438 236.898438 30 261.5 30 C 271.5 30 277.800781 29 282.101562 35.601562 C 285.632812 41.746094 285.855469 49.253906 282.699219 55.601562 C 279 62.398438 274.199219 62.5 263.800781 62.5 L 212.601562 62.5 L 212.601562 40.699219 C 202.433594 42.707031 192.414062 45.378906 182.601562 48.699219 L 182.601562 128.699219 C 192.582031 129.507812 202.617188 129.507812 212.601562 128.699219 L 212.601562 89.199219 C 231.699219 86.5 269.699219 92.398438 288.898438 86.101562 C 332.199219 72.398438 325.101562 3.898438 270 3 C 254.699219 3 203.601562 2.300781 190.601562 3 Z M 182.699219 30 "></path><path style=" stroke:none;fill-rule:evenodd;fill:rgb(35.294118%,36.078431%,36.470588%);fill-opacity:1;" d="M 653 3 L 599 3 C 582.398438 3 562 0.898438 548.398438 5.5 C 534.851562 9.3125 524.617188 20.441406 521.949219 34.261719 C 519.28125 48.082031 524.644531 62.222656 535.800781 70.800781 C 548.300781 80 560 80 580.5 80 L 607.5 80 C 616.601562 80 623 82.199219 623.699219 90 C 624.398438 97.800781 617.199219 102.199219 609.101562 102.300781 L 530 102.300781 L 521.5 130 C 530.394531 130.453125 539.304688 130.453125 548.199219 130 C 568.199219 130 612.699219 131.601562 626.699219 127.699219 C 640.519531 124.710938 651.4375 114.128906 654.855469 100.410156 C 658.273438 86.691406 653.597656 72.222656 642.800781 63.101562 C 627.300781 49.199219 597.601562 52.199219 572.800781 52.199219 C 562.800781 52.199219 556.898438 52.199219 554.199219 44.601562 C 551.5 37 557.898438 31.398438 565.398438 30 C 571 29.101562 635.398438 30 645.398438 30 Z M 653 3 "></path><path style=" stroke:none;fill-rule:evenodd;fill:rgb(35.294118%,36.078431%,36.470588%);fill-opacity:1;" d="M 850 83.101562 C 852.144531 68.964844 848.542969 54.5625 840 43.101562 C 823 21.699219 785 21.800781 765.5 37.300781 C 743.5 54.898438 745.5 96 759.898438 113 C 768.714844 123.085938 781.40625 128.941406 794.800781 129.101562 C 818 129.101562 836.199219 123.800781 845.699219 103.601562 C 848.394531 97.09375 849.855469 90.140625 850 83.101562 M 781.398438 75.398438 C 780.507812 66.640625 784.40625 58.078125 791.601562 53 C 811.601562 44.101562 821.601562 68.800781 816.199219 89.101562 C 810.800781 109.398438 792.800781 108.101562 785.5 97.800781 C 781.671875 90.996094 780.0625 83.164062 780.898438 75.398438 Z M 781.398438 75.398438 "></path><path style=" stroke:none;fill-rule:evenodd;fill:rgb(35.294118%,36.078431%,36.470588%);fill-opacity:1;" d="M 1060.601562 95.398438 C 1057.898438 97.101562 1059.199219 97 1057 100.300781 C 1051.601562 108.300781 1027 112 1027 86.199219 L 1091.601562 86.199219 C 1093.601562 54.398438 1079.101562 31.5 1053.101562 27.898438 C 1020 23.199219 1000 40 995.300781 65.601562 C 984.5 125.601562 1039.898438 139.300781 1069 123.101562 C 1079.671875 117.332031 1087.328125 107.234375 1090 95.398438 Z M 1025.898438 67.800781 C 1028.601562 41.5 1060.101562 42.398438 1060.601562 67.800781 Z M 1025.898438 67.800781 "></path><path style=" stroke:none;fill-rule:evenodd;fill:rgb(35.294118%,36.078431%,36.470588%);fill-opacity:1;" d="M 908 126.300781 C 908 111.699219 908 97 908 82.300781 C 908 67.601562 908 53.199219 921.898438 52.300781 C 930.398438 51.699219 934 54.398438 935.398438 61.101562 C 937.300781 70.199219 936.699219 115.601562 936.5 126.300781 L 968.101562 126.300781 C 968.101562 112.300781 968.101562 97.199219 968.101562 83.101562 C 969.394531 69.6875 968.347656 56.152344 965 43.101562 C 957.601562 25.398438 932.398438 24.699219 920 31.5 C 915.574219 34.125 911.648438 37.511719 908.398438 41.5 C 908.96875 37.890625 908.96875 34.210938 908.398438 30.601562 C 898.105469 29.339844 887.695312 29.339844 877.398438 30.601562 L 877.398438 126.601562 Z M 908 126.300781 "></path><path style=" stroke:none;fill-rule:evenodd;fill:rgb(35.294118%,36.078431%,36.470588%);fill-opacity:1;" d="M 713 50 C 718.25 50.613281 723.550781 50.613281 728.800781 50 C 729.851562 43.710938 729.851562 37.289062 728.800781 31 C 723.558594 30.285156 718.242188 30.285156 713 31 L 713 3 L 681.5 3 L 681.5 30 L 668.398438 30 L 668.398438 50 L 681.300781 50 C 681.300781 66.5 679.699219 100 684.101562 114.300781 C 687.601562 125.699219 697.699219 128.601562 709.800781 128.601562 C 732.898438 128.601562 728.300781 126.699219 728.300781 106.199219 C 714.800781 106.699219 712.898438 103.199219 712.898438 90.101562 Z M 713 50 "></path><path style=" stroke:none;fill-rule:nonzero;fill:rgb(35.294118%,36.078431%,36.470588%);fill-opacity:1;" d="M 30 208.699219 C 30.027344 210.746094 29.472656 212.757812 28.398438 214.5 C 27.34375 216.421875 25.742188 217.988281 23.800781 219 C 21.449219 220.191406 18.835938 220.777344 16.199219 220.699219 C 13.484375 220.707031 10.796875 220.164062 8.300781 219.101562 C 6.101562 218.109375 4.207031 216.558594 2.800781 214.601562 C 1.246094 212.792969 0.273438 210.566406 0 208.199219 L 6.300781 208.199219 C 6.484375 209.507812 6.925781 210.765625 7.601562 211.898438 C 8.414062 213.140625 9.507812 214.167969 10.800781 214.898438 C 12.332031 215.730469 14.058594 216.144531 15.800781 216.101562 C 17.941406 216.226562 20.039062 215.46875 21.601562 214 C 22.957031 212.617188 23.679688 210.734375 23.601562 208.800781 C 23.660156 207.214844 23.164062 205.660156 22.199219 204.398438 C 21.214844 203.285156 20.027344 202.371094 18.699219 201.699219 L 13 200 C 10.679688 199.277344 8.410156 198.40625 6.199219 197.398438 C 4.476562 196.511719 2.972656 195.246094 1.800781 193.699219 C 0.441406 191.628906 -0.191406 189.167969 0 186.699219 C -0.0195312 184.546875 0.570312 182.433594 1.699219 180.601562 C 2.855469 178.785156 4.527344 177.359375 6.5 176.5 C 8.820312 175.445312 11.351562 174.933594 13.898438 175 C 17.5 174.910156 21.023438 176.039062 23.898438 178.199219 C 26.421875 180.234375 28.039062 183.179688 28.398438 186.398438 L 22.601562 186.398438 C 22.316406 184.574219 21.394531 182.910156 20 181.699219 C 18.351562 180.242188 16.199219 179.488281 14 179.601562 C 11.960938 179.515625 9.964844 180.191406 8.398438 181.5 C 6.964844 182.796875 6.195312 184.671875 6.300781 186.601562 C 6.253906 188.121094 6.75 189.609375 7.699219 190.800781 C 8.644531 191.867188 9.800781 192.71875 11.101562 193.300781 C 12.398438 193.898438 14.300781 194.601562 16.601562 195.398438 C 18.980469 196.128906 21.320312 196.996094 23.601562 198 C 25.347656 198.898438 26.859375 200.199219 28 201.800781 C 29.320312 203.851562 29.984375 206.261719 29.898438 208.699219 "></path><path style=" stroke:none;fill-rule:nonzero;fill:rgb(35.294118%,36.078431%,36.470588%);fill-opacity:1;" d="M 53.800781 175.601562 L 59.601562 175.601562 L 59.601562 220.199219 L 53.800781 220.199219 Z M 53.800781 175.601562 "></path><path style=" stroke:none;fill-rule:nonzero;fill:rgb(35.294118%,36.078431%,36.470588%);fill-opacity:1;" d="M 129.800781 176.398438 L 129.800781 220.199219 L 124 220.199219 L 124 185.199219 L 110.101562 220.199219 L 104.898438 220.199219 L 90.898438 185.398438 L 90.898438 220.199219 L 85.101562 220.199219 L 85.101562 176.398438 L 92 176.398438 L 107.601562 213.199219 L 122.898438 176.398438 Z M 129.800781 176.398438 "></path><path style=" stroke:none;fill-rule:nonzero;fill:rgb(35.294118%,36.078431%,36.470588%);fill-opacity:1;" d="M 169 197.398438 C 171.722656 197.675781 174.445312 196.886719 176.601562 195.199219 C 178.191406 193.542969 179.023438 191.296875 178.898438 189 C 179.058594 186.640625 178.222656 184.320312 176.601562 182.601562 C 174.503906 180.769531 171.777344 179.835938 169 180 L 161.101562 180 L 161.101562 197 Z M 161.101562 202.300781 L 161.101562 220 L 155.398438 220 L 155.398438 175.601562 L 170 175.601562 C 174.152344 175.277344 178.273438 176.566406 181.5 179.199219 C 184.152344 181.828125 185.539062 185.472656 185.300781 189.199219 C 185.585938 192.953125 184.148438 196.632812 181.398438 199.199219 C 178.199219 201.808594 174.121094 203.097656 170 202.800781 Z M 161.101562 202.300781 "></path><path style=" stroke:none;fill-rule:nonzero;fill:rgb(35.294118%,36.078431%,36.470588%);fill-opacity:1;" d="M 213.601562 215.699219 L 229.398438 215.699219 L 229.398438 220.199219 L 207.800781 220.199219 L 207.800781 175.601562 L 213.601562 175.601562 Z M 213.601562 215.699219 "></path><path style=" stroke:none;fill-rule:nonzero;fill:rgb(35.294118%,36.078431%,36.470588%);fill-opacity:1;" d="M 257.398438 180.300781 L 257.398438 195.5 L 274.300781 195.5 L 274.300781 200 L 257.398438 200 L 257.398438 215.601562 L 276.199219 215.601562 L 276.199219 220.199219 L 251.601562 220.199219 L 251.601562 175.601562 L 276.199219 175.601562 L 276.199219 180.300781 Z M 257.398438 180.300781 "></path><path style=" stroke:none;fill-rule:nonzero;fill:rgb(35.294118%,36.078431%,36.470588%);fill-opacity:1;" d="M 314.398438 199.199219 C 314.328125 195.992188 316.230469 193.066406 319.191406 191.832031 C 322.152344 190.59375 325.566406 191.296875 327.800781 193.601562 C 329.273438 195.085938 330.066406 197.109375 330 199.199219 C 330.046875 201.226562 329.25 203.183594 327.800781 204.601562 C 326.335938 206.085938 324.335938 206.917969 322.25 206.917969 C 320.164062 206.917969 318.164062 206.085938 316.699219 204.601562 C 315.222656 203.195312 314.390625 201.238281 314.398438 199.199219 "></path><path style=" stroke:none;fill-rule:nonzero;fill:rgb(35.294118%,36.078431%,36.470588%);fill-opacity:1;" d="M 383.699219 197.398438 C 386.421875 197.65625 389.136719 196.867188 391.300781 195.199219 C 392.890625 193.542969 393.726562 191.296875 393.601562 189 C 393.757812 186.640625 392.925781 184.320312 391.300781 182.601562 C 389.136719 180.933594 386.421875 180.144531 383.699219 180.398438 L 375.800781 180.398438 L 375.800781 197.398438 Z M 375.800781 202.300781 L 375.800781 220 L 370 220 L 370 175.601562 L 384.199219 175.601562 C 388.351562 175.285156 392.46875 176.574219 395.699219 179.199219 C 398.355469 181.828125 399.742188 185.472656 399.5 189.199219 C 399.757812 192.96875 398.285156 196.648438 395.5 199.199219 C 392.328125 201.792969 388.289062 203.082031 384.199219 202.800781 Z M 375.800781 202.300781 "></path><path style=" stroke:none;fill-rule:nonzero;fill:rgb(35.294118%,36.078431%,36.470588%);fill-opacity:1;" d="M 427.898438 175.601562 L 427.898438 202.398438 C 427.554688 205.980469 428.59375 209.558594 430.800781 212.398438 C 432.933594 214.542969 435.882812 215.667969 438.898438 215.5 C 441.863281 215.691406 444.757812 214.554688 446.800781 212.398438 C 448.960938 209.539062 449.960938 205.96875 449.601562 202.398438 L 449.601562 175.601562 L 455.398438 175.601562 L 455.398438 202.398438 C 455.78125 207.382812 454.160156 212.3125 450.898438 216.101562 C 447.65625 219.273438 443.230469 220.941406 438.699219 220.699219 C 434.230469 220.921875 429.875 219.253906 426.699219 216.101562 C 423.4375 212.3125 421.820312 207.382812 422.199219 202.398438 L 422.199219 175.601562 Z M 427.898438 175.601562 "></path><path style=" stroke:none;fill-rule:nonzero;fill:rgb(35.294118%,36.078431%,36.470588%);fill-opacity:1;" d="M 486.398438 197.800781 L 494.800781 197.800781 C 501.398438 197.800781 504.800781 195 504.800781 189.199219 C 504.800781 183.398438 501.601562 180.601562 494.800781 180.601562 L 486.398438 180.601562 Z M 504.300781 220 L 492.699219 202 L 486.398438 202 L 486.398438 220 L 480.601562 220 L 480.601562 175.601562 L 495.300781 175.601562 C 499.421875 175.269531 503.511719 176.5625 506.699219 179.199219 C 509.378906 181.8125 510.765625 185.46875 510.5 189.199219 C 510.628906 192.402344 509.558594 195.542969 507.5 198 C 505.148438 200.371094 502.027344 201.828125 498.699219 202.101562 L 510.800781 220 Z M 504.300781 220 "></path><path style=" stroke:none;fill-rule:nonzero;fill:rgb(35.294118%,36.078431%,36.470588%);fill-opacity:1;" d="M 539.601562 180.300781 L 539.601562 195.5 L 556.601562 195.5 L 556.601562 200 L 539.601562 200 L 539.601562 215.601562 L 558.5 215.601562 L 558.5 220.199219 L 533.800781 220.199219 L 533.800781 175.601562 L 558.5 175.601562 L 558.5 180.300781 Z M 539.601562 180.300781 "></path><path style=" stroke:none;fill-rule:nonzero;fill:rgb(35.294118%,36.078431%,36.470588%);fill-opacity:1;" d="M 596.699219 199.199219 C 596.671875 197.097656 597.5 195.074219 599 193.601562 C 600.449219 192.121094 602.429688 191.289062 604.5 191.289062 C 606.570312 191.289062 608.550781 192.121094 610 193.601562 C 611.5 195.074219 612.328125 197.097656 612.300781 199.199219 C 612.300781 203.507812 608.808594 207 604.5 207 C 600.191406 207 596.699219 203.507812 596.699219 199.199219 "></path><path style=" stroke:none;fill-rule:nonzero;fill:rgb(35.294118%,36.078431%,36.470588%);fill-opacity:1;" d="M 676.800781 205.398438 L 668.601562 182.898438 L 660 205.398438 Z M 678.398438 209.898438 L 658.398438 209.898438 L 654.601562 219.898438 L 648.398438 219.898438 L 665 176.101562 L 671.5 176.101562 L 688.398438 220 L 682.101562 220 Z M 678.398438 209.898438 "></path><path style=" stroke:none;fill-rule:nonzero;fill:rgb(35.294118%,36.078431%,36.470588%);fill-opacity:1;" d="M 716.199219 180.300781 L 716.199219 195.5 L 733.199219 195.5 L 733.199219 200 L 716.199219 200 L 716.199219 215.601562 L 735.101562 215.601562 L 735.101562 220.199219 L 710.5 220.199219 L 710.5 175.601562 L 735.101562 175.601562 L 735.101562 180.300781 Z M 716.199219 180.300781 "></path><path style=" stroke:none;fill-rule:nonzero;fill:rgb(35.294118%,36.078431%,36.470588%);fill-opacity:1;" d="M 787.101562 208.699219 C 787.125 210.746094 786.570312 212.757812 785.5 214.5 C 784.445312 216.421875 782.84375 217.988281 780.898438 219 C 778.546875 220.191406 775.933594 220.777344 773.300781 220.699219 C 770.585938 220.707031 767.898438 220.164062 765.398438 219.101562 C 763.203125 218.109375 761.304688 216.558594 759.898438 214.601562 C 758.492188 212.746094 757.65625 210.523438 757.5 208.199219 L 763.601562 208.199219 C 763.785156 209.507812 764.226562 210.765625 764.898438 211.898438 C 765.710938 213.140625 766.808594 214.167969 768.101562 214.898438 C 769.632812 215.730469 771.355469 216.144531 773.101562 216.101562 C 775.238281 216.226562 777.335938 215.46875 778.898438 214 C 780.257812 212.617188 780.980469 210.734375 780.898438 208.800781 C 781.007812 207.210938 780.507812 205.636719 779.5 204.398438 C 778.535156 203.265625 777.34375 202.34375 776 201.699219 L 770 200 C 767.679688 199.277344 765.410156 198.40625 763.199219 197.398438 C 761.476562 196.511719 759.972656 195.246094 758.800781 193.699219 C 757.527344 191.742188 756.898438 189.433594 757 187.101562 C 756.980469 184.945312 757.570312 182.832031 758.699219 181 C 759.855469 179.1875 761.527344 177.757812 763.5 176.898438 C 765.820312 175.84375 768.351562 175.332031 770.898438 175.398438 C 774.5 175.3125 778.023438 176.4375 780.898438 178.601562 C 783.421875 180.632812 785.039062 183.582031 785.398438 186.800781 L 780 186.800781 C 779.691406 184.960938 778.734375 183.292969 777.300781 182.101562 C 773.894531 179.429688 769.105469 179.429688 765.699219 182.101562 C 764.265625 183.394531 763.492188 185.269531 763.601562 187.199219 C 763.550781 188.722656 764.046875 190.210938 765 191.398438 C 765.941406 192.464844 767.101562 193.316406 768.398438 193.898438 C 769.699219 194.5 771.601562 195.199219 773.898438 196 C 776.28125 196.730469 778.621094 197.597656 780.898438 198.601562 C 782.648438 199.496094 784.15625 200.800781 785.300781 202.398438 C 786.664062 204.433594 787.332031 206.855469 787.199219 209.300781 "></path><path style=" stroke:none;fill-rule:nonzero;fill:rgb(35.294118%,36.078431%,36.470588%);fill-opacity:1;" d="M 838.398438 175.601562 L 838.398438 180.300781 L 825.800781 180.300781 L 825.800781 220.199219 L 820.101562 220.199219 L 820.101562 180.300781 L 807.5 180.300781 L 807.5 175.601562 Z M 838.398438 175.601562 "></path><path style=" stroke:none;fill-rule:nonzero;fill:rgb(35.294118%,36.078431%,36.470588%);fill-opacity:1;" d="M 894.699219 175.601562 L 894.699219 220.199219 L 888.898438 220.199219 L 888.898438 199.601562 L 866.199219 199.601562 L 866.199219 220.199219 L 860.5 220.199219 L 860.5 175.601562 L 866.199219 175.601562 L 866.199219 194.898438 L 888.898438 194.898438 L 888.898438 175.601562 Z M 894.699219 175.601562 "></path><path style=" stroke:none;fill-rule:nonzero;fill:rgb(35.294118%,36.078431%,36.470588%);fill-opacity:1;" d="M 926 180.300781 L 926 195.5 L 943 195.5 L 943 200 L 926 200 L 926 215.601562 L 944.898438 215.601562 L 944.898438 220.199219 L 920.300781 220.199219 L 920.300781 175.601562 L 944.898438 175.601562 L 944.898438 180.300781 Z M 926 180.300781 "></path><path style=" stroke:none;fill-rule:nonzero;fill:rgb(35.294118%,36.078431%,36.470588%);fill-opacity:1;" d="M 996 175.601562 L 996 180.300781 L 983.398438 180.300781 L 983.398438 220.199219 L 977.601562 220.199219 L 977.601562 180.300781 L 965 180.300781 L 965 175.601562 Z M 996 175.601562 "></path><path style=" stroke:none;fill-rule:nonzero;fill:rgb(35.294118%,36.078431%,36.470588%);fill-opacity:1;" d="M 1018 175.601562 L 1023.800781 175.601562 L 1023.800781 220.199219 L 1018 220.199219 Z M 1018 175.601562 "></path><path style=" stroke:none;fill-rule:nonzero;fill:rgb(35.294118%,36.078431%,36.470588%);fill-opacity:1;" d="M 1069 175.199219 C 1073.820312 174.980469 1078.578125 176.390625 1082.5 179.199219 C 1086.144531 181.851562 1088.789062 185.65625 1090 190 L 1083.898438 190 C 1082.800781 187.144531 1080.890625 184.675781 1078.398438 182.898438 C 1075.644531 181.089844 1072.394531 180.179688 1069.101562 180.300781 C 1066.324219 180.261719 1063.589844 180.988281 1061.199219 182.398438 C 1058.835938 183.851562 1056.957031 185.976562 1055.800781 188.5 C 1054.410156 191.363281 1053.726562 194.519531 1053.800781 197.699219 C 1053.726562 200.882812 1054.410156 204.035156 1055.800781 206.898438 C 1056.984375 209.40625 1058.859375 211.519531 1061.199219 213 C 1063.589844 214.414062 1066.324219 215.140625 1069.101562 215.101562 C 1072.390625 215.175781 1075.625 214.269531 1078.398438 212.5 C 1080.890625 210.722656 1082.800781 208.253906 1083.898438 205.398438 L 1090 205.398438 C 1088.855469 209.800781 1086.246094 213.679688 1082.601562 216.398438 C 1078.675781 219.210938 1073.921875 220.621094 1069.101562 220.398438 C 1065.199219 220.5 1061.351562 219.492188 1058 217.5 C 1054.6875 215.792969 1051.914062 213.195312 1050 210 C 1048.148438 206.347656 1047.21875 202.296875 1047.300781 198.199219 C 1047.230469 194.105469 1048.160156 190.058594 1050 186.398438 C 1051.691406 183.050781 1054.289062 180.242188 1057.5 178.300781 C 1060.878906 176.386719 1064.714844 175.417969 1068.601562 175.5 "></path></g></svg>